<svg width="161" height="63" viewBox="0 0 161 63" fill="none" xmlns="http://www.w3.org/2000/svg">
<path d="M85.1142 30.022C85.1142 31.6644 84.915 33.1753 84.5831 34.4892C84.2511 35.8031 83.72 36.9199 82.9897 37.8396C82.2594 38.7593 81.3963 39.4819 80.4004 39.9417C79.3381 40.4673 78.2095 40.6644 76.8816 40.6644C76.2841 40.6644 75.8194 40.5987 75.2882 40.4673C74.8235 40.3359 74.3588 40.2045 73.894 39.9417C73.4293 39.679 72.9645 39.4162 72.4998 39.022C72.035 38.6279 71.5703 38.2337 71.0392 37.7739V47.2337C71.0392 47.3651 71.0392 47.4308 70.9728 47.4965C70.9064 47.5622 70.84 47.6279 70.7072 47.6936C70.5744 47.7593 70.3752 47.7593 70.1761 47.825C69.9769 47.825 69.6449 47.8907 69.313 47.8907C68.981 47.8907 68.7154 47.8907 68.4499 47.825C68.2507 47.825 68.0515 47.7593 67.9188 47.6936C67.786 47.6279 67.7196 47.5622 67.6532 47.4965C67.5868 47.4308 67.5868 47.2994 67.5868 47.2337V20.825C67.5868 20.6936 67.5868 20.6279 67.6532 20.4965C67.7196 20.4308 67.786 20.3651 67.9188 20.2994C68.0515 20.2337 68.1843 20.2337 68.3835 20.168C68.5827 20.168 68.8482 20.168 69.1138 20.168C69.3794 20.168 69.6449 20.168 69.8441 20.168C70.0433 20.168 70.1761 20.2337 70.3089 20.2994C70.4416 20.3651 70.508 20.4308 70.5744 20.4965C70.6408 20.5622 70.6408 20.6936 70.6408 20.825V23.387C71.2383 22.7958 71.7695 22.2702 72.3006 21.8761C72.8317 21.4162 73.3629 21.0877 73.894 20.825C74.4251 20.5622 75.0227 20.2994 75.5538 20.168C76.1513 20.0366 76.7489 19.9709 77.3464 19.9709C78.7406 19.9709 79.9357 20.2337 80.8651 20.7593C81.861 21.2848 82.6577 22.0074 83.2552 22.9272C83.8528 23.8469 84.3175 24.898 84.5831 26.1461C84.9814 27.3286 85.1142 28.6425 85.1142 30.022ZM81.5291 30.4162C81.5291 29.4308 81.4627 28.5111 81.3299 27.5914C81.1971 26.6717 80.9315 25.8834 80.5332 25.1607C80.2012 24.4381 79.6701 23.9126 79.0726 23.4527C78.475 23.0585 77.6783 22.7958 76.8152 22.7958C76.3505 22.7958 75.8858 22.8615 75.4874 22.9928C75.0227 23.1242 74.6243 23.3213 74.1596 23.6498C73.6948 23.9126 73.2301 24.3067 72.699 24.7666C72.1678 25.2264 71.7031 25.8177 71.1056 26.4746V33.9636C72.1014 35.1461 72.9645 36.0001 73.8276 36.6571C74.6907 37.2483 75.6202 37.5768 76.5497 37.5768C77.4128 37.5768 78.2095 37.3797 78.807 36.9199C79.4709 36.5257 79.9357 35.9344 80.334 35.2118C80.7324 34.4892 80.9979 33.7009 81.1971 32.8469C81.3963 32.1899 81.5291 31.2702 81.5291 30.4162Z" fill="#292A39"/>
<path d="M104.501 29.4965C104.501 30.0221 104.368 30.4162 104.102 30.679C103.837 30.9418 103.505 31.0075 103.173 31.0075H90.6248C90.6248 32.0586 90.7575 32.9783 90.9567 33.8323C91.1559 34.6863 91.5542 35.4089 92.019 36.0002C92.4837 36.5914 93.1476 37.0513 93.9443 37.3797C94.741 37.7082 95.7369 37.8396 96.8656 37.8396C97.7951 37.8396 98.5918 37.7739 99.3221 37.6425C100.052 37.5111 100.65 37.3141 101.181 37.117C101.712 36.9199 102.111 36.7885 102.442 36.5914C102.774 36.46 103.04 36.3943 103.173 36.3943C103.306 36.3943 103.372 36.3943 103.438 36.46C103.505 36.5257 103.571 36.5914 103.638 36.6571C103.704 36.7228 103.704 36.9199 103.704 37.0513C103.704 37.2484 103.704 37.4454 103.704 37.7082C103.704 37.9053 103.704 38.0367 103.704 38.1681C103.704 38.2994 103.704 38.4308 103.638 38.4965C103.638 38.6279 103.571 38.6936 103.505 38.7593C103.438 38.825 103.372 38.8907 103.306 39.0221C103.239 39.0878 102.974 39.2192 102.642 39.4162C102.243 39.6133 101.779 39.7447 101.181 39.9418C100.584 40.1389 99.8532 40.2703 99.0565 40.4016C98.2598 40.533 97.3967 40.5987 96.4672 40.5987C94.8738 40.5987 93.546 40.4016 92.3509 39.9418C91.1559 39.4819 90.16 38.8907 89.3633 38.0367C88.5666 37.1827 87.9691 36.1316 87.5707 34.8177C87.1724 33.5038 86.9732 32.0586 86.9732 30.3505C86.9732 28.7082 87.1724 27.263 87.6371 25.9491C88.0355 24.6352 88.6994 23.5841 89.4961 22.6644C90.2928 21.7447 91.2887 21.0878 92.4173 20.5622C93.546 20.1024 94.8074 19.8396 96.2017 19.8396C97.7287 19.8396 98.9901 20.1024 100.052 20.5622C101.115 21.0221 101.978 21.679 102.642 22.4673C103.306 23.2557 103.837 24.2411 104.169 25.2922C104.501 26.4089 104.633 27.5257 104.633 28.7739V29.4965H104.501ZM100.982 28.4454C101.048 26.606 100.584 25.2265 99.7868 24.1754C98.9237 23.1243 97.6623 22.5987 95.9361 22.5987C95.073 22.5987 94.2763 22.7301 93.6788 23.0586C93.0149 23.387 92.4837 23.7812 92.019 24.3068C91.5542 24.8323 91.2223 25.4892 91.0231 26.1462C90.7575 26.8688 90.6248 27.5914 90.6248 28.3797H100.982V28.4454Z" fill="#292A39"/>
<path d="M122.094 39.7447C122.094 39.9418 122.028 40.0075 121.895 40.1389C121.762 40.2046 121.63 40.2703 121.431 40.336C121.231 40.4017 120.966 40.4017 120.567 40.4017C120.169 40.4017 119.904 40.4017 119.704 40.336C119.505 40.2703 119.306 40.2046 119.24 40.1389C119.173 40.0732 119.107 39.9418 119.107 39.7447V37.8396C118.244 38.6936 117.314 39.4163 116.318 39.8761C115.322 40.336 114.194 40.5987 113.065 40.5987C112.069 40.5987 111.14 40.4674 110.343 40.2046C109.546 39.9418 108.816 39.5476 108.285 39.0878C107.687 38.6279 107.289 37.971 106.957 37.2484C106.625 36.5257 106.492 35.7374 106.492 34.8177C106.492 33.7666 106.692 32.8469 107.156 32.0586C107.621 31.2703 108.219 30.6133 109.015 30.0878C109.812 29.5622 110.808 29.1681 112.003 28.9053C113.198 28.6425 114.526 28.5112 115.986 28.5112H118.642V27.0659C118.642 26.3433 118.576 25.6863 118.377 25.1608C118.244 24.5695 117.978 24.1097 117.646 23.7812C117.314 23.3871 116.849 23.1243 116.318 22.9272C115.787 22.7301 115.057 22.6644 114.26 22.6644C113.397 22.6644 112.6 22.7958 111.937 22.9929C111.273 23.19 110.675 23.4528 110.144 23.6498C109.613 23.9126 109.214 24.1097 108.882 24.3068C108.551 24.5039 108.285 24.6352 108.086 24.6352C107.953 24.6352 107.887 24.6352 107.82 24.5695C107.754 24.5039 107.687 24.4382 107.621 24.3068C107.555 24.1754 107.488 24.044 107.488 23.8469C107.488 23.6498 107.422 23.4528 107.422 23.2557C107.422 22.9272 107.422 22.5987 107.488 22.4017C107.555 22.2046 107.687 22.0075 107.82 21.8104C108.019 21.6133 108.351 21.4163 108.816 21.1535C109.281 20.8907 109.812 20.6936 110.409 20.4966C111.007 20.2995 111.671 20.1024 112.401 19.971C113.132 19.8396 113.862 19.7739 114.592 19.7739C115.986 19.7739 117.115 19.9053 118.111 20.2338C119.107 20.5622 119.837 21.0221 120.435 21.6133C121.032 22.2046 121.431 22.9272 121.762 23.8469C122.028 24.7009 122.161 25.752 122.161 26.9345V39.7447H122.094ZM118.576 31.1389H115.588C114.592 31.1389 113.795 31.2046 113.065 31.4017C112.335 31.533 111.737 31.7958 111.273 32.1243C110.808 32.4528 110.476 32.8469 110.21 33.2411C110.011 33.7009 109.878 34.1608 109.878 34.752C109.878 35.7374 110.21 36.5257 110.808 37.117C111.405 37.7082 112.335 37.971 113.464 37.971C114.393 37.971 115.256 37.7082 116.053 37.2484C116.849 36.7885 117.646 36.0659 118.509 35.1462V31.1389H118.576Z" fill="#292A39"/>
<path d="M137.497 22.0732C137.497 22.4016 137.497 22.6644 137.497 22.8615C137.497 23.0586 137.431 23.2556 137.431 23.3213C137.365 23.4527 137.365 23.5184 137.298 23.5841C137.232 23.6498 137.165 23.6498 137.033 23.6498C136.9 23.6498 136.767 23.6498 136.634 23.5841C136.501 23.5184 136.302 23.4527 136.103 23.387C135.904 23.3213 135.638 23.2556 135.439 23.1899C135.174 23.1243 134.908 23.1243 134.642 23.1243C134.31 23.1243 133.912 23.1899 133.58 23.3213C133.248 23.4527 132.85 23.7155 132.518 24.044C132.12 24.3724 131.721 24.7666 131.323 25.2921C130.925 25.8177 130.46 26.4746 129.995 27.2629V39.679C129.995 39.8104 129.995 39.8761 129.929 39.9418C129.862 40.0075 129.796 40.0732 129.663 40.1388C129.53 40.2045 129.331 40.2045 129.132 40.2702C128.933 40.2702 128.601 40.3359 128.269 40.3359C127.937 40.3359 127.671 40.3359 127.406 40.2702C127.207 40.2702 127.007 40.2045 126.875 40.1388C126.742 40.0732 126.675 40.0075 126.609 39.9418C126.543 39.8761 126.543 39.7447 126.543 39.679V20.825C126.543 20.6936 126.543 20.6279 126.609 20.5622C126.675 20.4965 126.742 20.4308 126.875 20.3651C127.007 20.2994 127.14 20.2337 127.339 20.2337C127.539 20.2337 127.804 20.2337 128.136 20.2337C128.468 20.2337 128.734 20.2337 128.933 20.2337C129.132 20.2337 129.265 20.2994 129.398 20.3651C129.53 20.4308 129.597 20.4965 129.663 20.5622C129.729 20.6279 129.729 20.7593 129.729 20.825V23.5841C130.261 22.7958 130.725 22.2045 131.19 21.7447C131.655 21.2848 132.053 20.8907 132.518 20.6279C132.916 20.3651 133.315 20.168 133.713 20.0367C134.111 19.9053 134.51 19.9053 134.908 19.9053C135.107 19.9053 135.306 19.9053 135.506 19.9053C135.771 19.9053 135.97 19.971 136.236 20.0367C136.501 20.1024 136.701 20.168 136.9 20.2337C137.099 20.2994 137.232 20.3651 137.365 20.4308C137.431 20.4965 137.497 20.5622 137.564 20.6279C137.564 20.6936 137.63 20.7593 137.63 20.8907C137.63 20.9564 137.696 21.1534 137.696 21.3505C137.497 21.4819 137.497 21.7447 137.497 22.0732Z" fill="#292A39"/>
<path d="M142.809 39.7446C142.809 39.876 142.809 39.9417 142.742 40.0074C142.676 40.0731 142.609 40.1388 142.477 40.2045C142.344 40.2702 142.145 40.2702 141.946 40.3359C141.746 40.3359 141.414 40.4016 141.082 40.4016C140.751 40.4016 140.485 40.4016 140.219 40.3359C140.02 40.3359 139.821 40.2702 139.688 40.2045C139.555 40.1388 139.489 40.0731 139.423 40.0074C139.356 39.9417 139.356 39.8103 139.356 39.7446V11.6936C139.356 11.5622 139.356 11.4965 139.423 11.4308C139.489 11.3651 139.555 11.2994 139.688 11.2337C139.821 11.168 140.02 11.168 140.219 11.1023C140.419 11.1023 140.751 11.0366 141.082 11.0366C141.414 11.0366 141.746 11.0366 141.946 11.1023C142.145 11.1023 142.344 11.168 142.477 11.2337C142.609 11.2994 142.676 11.3651 142.742 11.4308C142.809 11.4965 142.809 11.6279 142.809 11.6936V39.7446Z" fill="#292A39"/>
<path d="M159.075 34.6206C159.075 35.606 158.875 36.46 158.544 37.1826C158.212 37.971 157.68 38.5622 157.017 39.0878C156.353 39.6133 155.556 40.0075 154.626 40.2702C153.697 40.533 152.701 40.6644 151.572 40.6644C150.908 40.6644 150.245 40.5987 149.647 40.533C149.049 40.4016 148.452 40.2702 147.987 40.1388C147.522 40.0075 147.058 39.8104 146.726 39.6133C146.394 39.4162 146.128 39.2848 145.995 39.1534C145.863 39.0221 145.73 38.825 145.664 38.5622C145.597 38.2994 145.531 37.971 145.531 37.5111C145.531 37.2483 145.531 37.0513 145.597 36.8542C145.597 36.6571 145.664 36.5257 145.73 36.3943C145.796 36.2629 145.863 36.1972 145.929 36.1315C145.995 36.0659 146.128 36.0659 146.195 36.0659C146.327 36.0659 146.593 36.1315 146.859 36.3286C147.191 36.5257 147.522 36.7228 147.987 36.9199C148.452 37.117 148.983 37.3797 149.581 37.5111C150.178 37.7082 150.908 37.7739 151.705 37.7739C152.303 37.7739 152.834 37.7082 153.299 37.5768C153.763 37.4454 154.228 37.2483 154.56 37.0513C154.892 36.7885 155.158 36.5257 155.357 36.1315C155.556 35.7374 155.622 35.2775 155.622 34.8177C155.622 34.2921 155.489 33.8323 155.224 33.5038C154.958 33.1097 154.56 32.8469 154.162 32.5184C153.697 32.2556 153.166 31.9929 152.635 31.7958C152.037 31.5987 151.506 31.3359 150.908 31.1389C150.311 30.8761 149.713 30.6133 149.116 30.3505C148.518 30.0221 148.054 29.6936 147.589 29.2337C147.124 28.7739 146.792 28.2483 146.527 27.6571C146.261 27.0659 146.128 26.3432 146.128 25.4892C146.128 24.7666 146.261 24.044 146.593 23.387C146.859 22.7301 147.323 22.1389 147.921 21.6133C148.518 21.0878 149.249 20.6936 150.112 20.3651C150.975 20.0367 151.971 19.9053 153.166 19.9053C153.697 19.9053 154.162 19.971 154.693 20.0367C155.224 20.1024 155.689 20.2337 156.087 20.3651C156.485 20.4965 156.817 20.6279 157.149 20.7593C157.415 20.8907 157.68 21.0221 157.813 21.1534C157.946 21.2848 158.079 21.3505 158.079 21.4162C158.145 21.4819 158.145 21.6133 158.212 21.679C158.212 21.8104 158.278 21.9418 158.278 22.0732C158.278 22.2045 158.278 22.4016 158.278 22.6644C158.278 22.9272 158.278 23.1243 158.278 23.2556C158.278 23.4527 158.212 23.5841 158.145 23.7155C158.079 23.8469 158.012 23.9126 157.946 23.9783C157.88 24.044 157.813 24.044 157.68 24.044C157.548 24.044 157.348 23.9783 157.149 23.7812C156.884 23.6498 156.618 23.4527 156.22 23.2556C155.821 23.0586 155.357 22.9272 154.892 22.7301C154.361 22.5987 153.763 22.4673 153.099 22.4673C152.502 22.4673 151.971 22.533 151.506 22.6644C151.041 22.7958 150.709 22.9929 150.377 23.2556C150.112 23.5184 149.846 23.7812 149.713 24.1097C149.581 24.4381 149.514 24.8323 149.514 25.2264C149.514 25.752 149.647 26.2118 149.913 26.606C150.178 27.0002 150.577 27.3286 151.041 27.5914C151.506 27.8542 152.037 28.117 152.568 28.3797C153.166 28.5768 153.763 28.8396 154.361 29.1024C154.958 29.3651 155.556 29.6279 156.153 29.8907C156.751 30.1534 157.282 30.5476 157.747 30.9418C158.212 31.3359 158.544 31.8615 158.809 32.4527C158.942 33.1097 159.075 33.7666 159.075 34.6206Z" fill="#292A39"/>
<path d="M61.4787 31.0074C61.4787 47.4308 48.0012 60.7665 31.4033 60.7665C14.8053 60.7665 1.32782 47.4308 1.32782 31.0074C1.32782 14.5841 14.8053 1.24829 31.4033 1.24829C48.0012 1.24829 61.4787 14.5841 61.4787 31.0074Z" fill="#FFCD06"/>
<path d="M48.3332 34.292C48.0676 33.5037 47.6693 32.8468 47.1381 32.2555C46.6734 31.6643 46.0759 31.2044 45.4119 30.8103C44.748 30.4161 44.0177 30.1533 43.2874 30.0219C43.8849 29.7592 44.4161 29.4307 44.8808 29.0365C45.3455 28.6424 45.7439 28.1825 46.0759 27.657C46.4078 27.1314 46.607 26.6059 46.8062 26.0146C46.9389 25.4234 47.0717 24.7665 47.0717 24.1095C47.0717 22.9928 46.8726 22.0073 46.5406 21.1533C46.2086 20.2993 45.6775 19.5767 44.9472 18.9198C44.2169 18.3285 43.3538 17.8687 42.2915 17.5402C41.2293 17.2117 39.835 17.0803 38.1752 17.0803H35.1876H31.868H31.8016C31.4697 17.0803 31.1377 17.2117 30.8721 17.4088C30.6066 17.6059 30.4074 18 30.4074 18.5913V20.1022V29.0365H27.9509H24.4985C23.5027 29.0365 22.7723 28.9052 22.1748 28.6424C21.5773 28.3796 21.1126 28.0511 20.7142 27.657C20.3159 27.2628 20.0503 26.7373 19.8511 26.2117C19.6519 25.6205 19.5855 25.0949 19.5855 24.438C19.5855 23.7811 19.6519 23.1898 19.8511 22.5986C20.0503 22.073 20.3159 21.6132 20.7142 21.219C21.1126 20.8249 21.6437 20.5621 22.3076 20.365C22.9715 20.1679 23.8346 20.0365 24.8969 20.0365H28.3493H28.4156V17.0146H28.1501H24.6977C23.0379 17.0146 21.6437 17.146 20.5814 17.4745C19.5192 17.803 18.6561 18.2628 17.9257 18.8541C17.1954 19.4453 16.6643 20.1679 16.3323 21.0876C16.0004 21.9417 15.8012 22.9271 15.8012 24.0438C15.8012 24.7008 15.8676 25.3577 16.0668 25.949C16.1996 26.5402 16.4651 27.1314 16.7971 27.5913C17.129 28.1168 17.5274 28.5767 17.9921 28.9708C18.4569 29.365 18.988 29.6935 19.5855 29.9563C18.8552 30.0876 18.1249 30.3504 17.461 30.7446C16.7971 31.1387 16.1996 31.5986 15.7348 32.1898C15.2701 32.7811 14.8717 33.438 14.5398 34.2263C14.2742 35.0146 14.1414 35.8687 14.1414 36.7884C14.1414 37.6424 14.2742 38.4307 14.4734 39.219C14.6726 39.9417 15.0045 40.5986 15.4029 41.1898C15.8012 41.7811 16.266 42.3066 16.8635 42.7008C17.461 43.1606 18.0585 43.4891 18.7888 43.8176C19.5192 44.146 20.2495 44.3431 21.0462 44.4745C21.8429 44.6059 22.7723 44.6716 23.8346 44.6716H27.287H28.5484V41.6497H26.8886H23.4363C22.5732 41.6497 21.8429 41.5183 21.2453 41.3212C20.5814 41.1241 20.0503 40.7957 19.5855 40.4672C19.1208 40.073 18.7224 39.6132 18.4569 39.0219C18.1913 38.4307 18.0585 37.7738 18.0585 36.9854C18.0585 36.1314 18.1913 35.4088 18.4569 34.8176C18.7224 34.1606 19.1208 33.6351 19.6519 33.2409C20.1831 32.7811 20.7806 32.5183 21.5773 32.2555C22.374 32.0584 23.3035 31.9271 24.4985 31.9271H27.9509H30.6066V41.6497V43.3577C30.6066 43.8833 30.7394 44.2774 31.0713 44.5402C31.3369 44.7373 31.6688 44.8687 32.0008 44.8687H32.0672H35.3868H39.2375C40.2998 44.8687 41.2293 44.803 42.026 44.6716C42.8227 44.5402 43.6194 44.2774 44.2833 44.0146C45.0136 43.6862 45.6111 43.3577 46.2086 42.8979C46.8062 42.438 47.2709 41.9125 47.6693 41.3869C48.0676 40.7957 48.3996 40.1387 48.5987 39.4161C48.7979 38.6935 48.9307 37.9052 48.9307 36.9854C48.7979 35.9344 48.5987 35.0803 48.3332 34.292ZM37.4449 20.1679H37.8433C38.9055 20.1679 39.7686 20.2993 40.4326 20.4964C41.0965 20.6935 41.6276 20.9563 42.026 21.3504C42.4243 21.7446 42.6899 22.2044 42.889 22.73C43.0882 23.2555 43.1546 23.8468 43.1546 24.5694C43.1546 25.1606 43.0882 25.7519 42.889 26.3431C42.6899 26.9344 42.4243 27.3942 42.026 27.7884C41.6276 28.1825 41.1629 28.511 40.5653 28.7738C39.9678 29.0365 39.1711 29.1679 38.2416 29.1679H37.4449H33.9926V20.1679H37.4449ZM37.4449 41.7811H33.9926V32.0584H37.4449H38.5072C39.7022 32.0584 40.6317 32.1898 41.4284 32.3869C42.2251 32.584 42.8227 32.9125 43.3538 33.3723C43.8849 33.8322 44.2833 34.3577 44.5488 34.949C44.8144 35.6059 44.9472 36.3285 44.9472 37.1168C44.9472 37.9052 44.8144 38.5621 44.5488 39.1533C44.2833 39.7446 43.8849 40.2044 43.4202 40.5986C42.9554 40.9927 42.3579 41.2555 41.7604 41.4526C41.0965 41.6497 40.3662 41.7811 39.5695 41.7811H37.4449Z" fill="#FCFCFD"/>
</svg>
