<?xml version="1.0" encoding="utf-8"?>
<!-- Generator: Adobe Illustrator 25.3.1, SVG Export Plug-In . SVG Version: 6.00 Build 0)  -->
<svg version="1.1" id="Layer_1" xmlns="http://www.w3.org/2000/svg" xmlns:xlink="http://www.w3.org/1999/xlink" x="0px" y="0px"
	 width="288px" height="126.1px" viewBox="0 0 288 126.1" style="enable-background:new 0 0 288 126.1;" xml:space="preserve">
<style type="text/css">
	.st0{fill-rule:evenodd;clip-rule:evenodd;fill:#EB2227;}
	.st1{fill-rule:evenodd;clip-rule:evenodd;}
	.st2{fill:#EB2227;}
</style>
<g>
	<path class="st0" d="M150.7,113v5.8c0.1,0.2,0.3,0.3,0.7,0.5c0.4,0.2,0.7,0.2,1,0.2c2.2,0,3.3-1.2,3.3-3.7c0-1.2-0.3-2.2-0.8-2.7
		c-0.5-0.6-1.3-0.9-2.5-0.9c-0.2,0-0.5,0.1-0.9,0.3C151.2,112.6,150.9,112.8,150.7,113z M150.7,120.3v4.4h-1.8v-13.7h1.8v0.8
		c0.7-0.7,1.5-1,2.4-1c1.4,0,2.5,0.4,3.3,1.3c0.8,0.9,1.2,2.2,1.2,3.8c0,1.5-0.4,2.7-1.2,3.7c-0.8,1-1.9,1.4-3.4,1.4
		c-0.4,0-0.9-0.1-1.3-0.2C151.1,120.6,150.8,120.4,150.7,120.3z"/>
	<path class="st0" d="M160.3,120.8v-8.4h-1.4v-1.5h3.1v9.9H160.3z M161.3,107.2c0.3,0,0.6,0.1,0.8,0.3c0.2,0.2,0.3,0.5,0.3,0.8
		c0,0.3-0.1,0.6-0.3,0.8c-0.2,0.2-0.5,0.3-0.8,0.3c-0.3,0-0.5-0.1-0.8-0.3c-0.2-0.2-0.3-0.5-0.3-0.8c0-0.3,0.1-0.6,0.3-0.8
		C160.7,107.3,161,107.2,161.3,107.2z"/>
	<path class="st0" d="M166.1,115.8c0,2.5,0.9,3.7,2.6,3.7c0.8,0,1.5-0.3,1.9-1c0.5-0.7,0.7-1.6,0.7-2.7c0-2.4-0.9-3.7-2.6-3.7
		c-0.8,0-1.4,0.3-1.9,1C166.3,113.8,166.1,114.7,166.1,115.8z M164.2,115.8c0-1.5,0.4-2.8,1.2-3.7c0.8-0.9,1.9-1.4,3.2-1.4
		c1.4,0,2.5,0.5,3.3,1.4c0.8,0.9,1.2,2.2,1.2,3.8c0,1.6-0.4,2.8-1.2,3.8c-0.8,0.9-1.9,1.4-3.3,1.4c-1.4,0-2.5-0.5-3.3-1.4
		C164.6,118.7,164.2,117.4,164.2,115.8z"/>
	<path class="st0" d="M181.1,120.8V115c0-1.1-0.2-1.8-0.5-2.2c-0.3-0.4-0.8-0.6-1.6-0.6c-0.4,0-0.8,0.1-1.3,0.4
		c-0.4,0.2-0.8,0.5-1,0.9v7.3H175v-9.9h1.2l0.6,1.3c0.6-1,1.5-1.5,2.8-1.5c2.2,0,3.2,1.3,3.2,3.9v6.1H181.1z"/>
	<path class="st0" d="M189.4,112.2c-0.8,0-1.4,0.3-2,0.8c-0.5,0.5-0.8,1.1-0.9,1.8h5.5c0-0.7-0.2-1.3-0.7-1.8
		C190.9,112.5,190.2,112.2,189.4,112.2z M193.6,116h-7.1c0,1.2,0.3,2,0.9,2.7c0.6,0.5,1.3,0.8,2.2,0.8c1,0,1.8-0.3,2.5-0.9l0.7,1.3
		c-0.3,0.3-0.7,0.5-1.2,0.7c-0.7,0.3-1.5,0.4-2.3,0.4c-1.2,0-2.3-0.4-3.2-1.3c-1-0.9-1.4-2.2-1.4-3.7c0-1.6,0.5-2.9,1.5-3.9
		c0.9-0.9,1.9-1.3,3.1-1.3c1.4,0,2.5,0.4,3.3,1.2c0.8,0.8,1.2,1.8,1.2,3C193.8,115.4,193.7,115.7,193.6,116z"/>
	<path class="st0" d="M199.7,112.2c-0.8,0-1.4,0.3-2,0.8c-0.5,0.5-0.8,1.1-0.9,1.8h5.5c0-0.7-0.2-1.3-0.7-1.8
		C201.2,112.5,200.5,112.2,199.7,112.2z M204,116h-7.1c0,1.2,0.3,2,0.9,2.7c0.6,0.5,1.3,0.8,2.2,0.8c1,0,1.8-0.3,2.5-0.9l0.7,1.3
		c-0.3,0.3-0.7,0.5-1.2,0.7c-0.7,0.3-1.5,0.4-2.3,0.4c-1.2,0-2.3-0.4-3.2-1.3c-1-0.9-1.4-2.2-1.4-3.7c0-1.6,0.5-2.9,1.5-3.9
		c0.9-0.9,1.9-1.3,3.1-1.3c1.4,0,2.5,0.4,3.3,1.2c0.8,0.8,1.2,1.8,1.2,3C204.1,115.4,204,115.7,204,116z"/>
	<path class="st0" d="M211.3,112.6c-0.4-0.3-0.8-0.4-1.2-0.4c-0.6,0-1.2,0.3-1.6,0.9c-0.5,0.6-0.7,1.3-0.7,2.1v5.7h-1.8v-9.9h1.8
		v1.6c0.6-1.2,1.6-1.8,2.9-1.8c0.3,0,0.8,0.1,1.4,0.2L211.3,112.6z"/>
	<path class="st0" d="M214.1,120.8v-8.4h-1.4v-1.5h3.1v9.9H214.1z M215.1,107.2c0.3,0,0.6,0.1,0.8,0.3c0.2,0.2,0.3,0.5,0.3,0.8
		c0,0.3-0.1,0.6-0.3,0.8c-0.2,0.2-0.5,0.3-0.8,0.3c-0.3,0-0.5-0.1-0.8-0.3c-0.2-0.2-0.3-0.5-0.3-0.8c0-0.3,0.1-0.6,0.3-0.8
		C214.5,107.3,214.8,107.2,215.1,107.2z"/>
	<path class="st0" d="M224.7,120.8V115c0-1.1-0.2-1.8-0.5-2.2c-0.3-0.4-0.8-0.6-1.6-0.6c-0.4,0-0.8,0.1-1.3,0.4
		c-0.4,0.2-0.8,0.5-1,0.9v7.3h-1.8v-9.9h1.2l0.6,1.3c0.6-1,1.5-1.5,2.8-1.5c2.2,0,3.2,1.3,3.2,3.9v6.1H224.7z"/>
	<path class="st0" d="M232.3,112.1c-0.6,0-1.1,0.2-1.5,0.6c-0.4,0.4-0.6,1-0.6,1.6c0,0.7,0.2,1.3,0.6,1.7c0.4,0.5,0.9,0.7,1.5,0.7
		c0.6,0,1.1-0.2,1.5-0.7c0.4-0.4,0.5-1,0.5-1.7c0-0.6-0.2-1.1-0.6-1.6C233.4,112.4,232.9,112.1,232.3,112.1z M228.6,123.5l1-1.4
		c1,0.7,2,1,2.8,1c0.8,0,1.4-0.1,1.9-0.4c0.5-0.3,0.7-0.6,0.7-1c0-0.8-0.6-1.2-1.7-1.2c-0.2,0-0.6,0.1-1.1,0.2
		c-0.5,0.1-0.9,0.2-1.2,0.2c-1.4,0-2.1-0.5-2.1-1.6c0-0.3,0.2-0.6,0.5-0.9c0.3-0.3,0.7-0.5,1.2-0.6c-1.4-0.7-2.1-1.8-2.1-3.4
		c0-1,0.4-1.9,1.1-2.6c0.7-0.7,1.6-1,2.7-1c1,0,1.7,0.2,2.3,0.6l0.9-1.1l1.1,1.1l-1.1,0.8c0.4,0.6,0.7,1.3,0.7,2.3
		c0,1-0.3,1.8-0.9,2.5s-1.4,1.1-2.4,1.2l-1.4,0.2c-0.2,0-0.4,0.1-0.7,0.2c-0.3,0.1-0.4,0.3-0.4,0.4c0,0.3,0.3,0.4,0.9,0.4
		c0.3,0,0.7,0,1.2-0.1c0.6-0.1,1-0.1,1.2-0.1c1,0,1.7,0.2,2.3,0.7c0.5,0.5,0.8,1.1,0.8,1.9c0,0.9-0.4,1.6-1.2,2.2
		c-0.8,0.6-1.8,0.8-3.1,0.8c-0.6,0-1.3-0.1-2-0.3C229.6,124.1,229.1,123.8,228.6,123.5z"/>
	<path class="st0" d="M243.5,120.2l0.6-1.7c1,0.6,1.8,1,2.4,1c1.1,0,1.6-0.5,1.6-1.4c0-0.7-0.5-1.2-1.6-1.7
		c-0.8-0.4-1.3-0.6-1.6-0.8s-0.5-0.4-0.7-0.7c-0.2-0.2-0.4-0.5-0.5-0.8c-0.1-0.3-0.2-0.6-0.2-0.9c0-0.8,0.3-1.4,0.9-1.9
		c0.6-0.5,1.4-0.7,2.3-0.7c0.7,0,1.6,0.2,2.7,0.7L249,113c-0.7-0.6-1.4-0.8-2.1-0.8c-0.4,0-0.8,0.1-1.1,0.3
		c-0.3,0.2-0.4,0.4-0.4,0.7c0,0.6,0.4,1.1,1.1,1.4l1.3,0.6c0.8,0.4,1.3,0.8,1.7,1.2c0.3,0.4,0.5,1,0.5,1.7c0,0.9-0.3,1.6-0.9,2.1
		c-0.6,0.5-1.5,0.8-2.6,0.8C245.4,121,244.4,120.7,243.5,120.2z"/>
	<path class="st0" d="M253.5,113v5.8c0.1,0.2,0.3,0.3,0.7,0.5c0.4,0.2,0.7,0.2,1,0.2c2.2,0,3.3-1.2,3.3-3.7c0-1.2-0.3-2.2-0.8-2.7
		c-0.5-0.6-1.3-0.9-2.5-0.9c-0.2,0-0.5,0.1-0.9,0.3C254,112.6,253.8,112.8,253.5,113z M253.5,120.3v4.4h-1.8v-13.7h1.8v0.8
		c0.7-0.7,1.5-1,2.4-1c1.4,0,2.5,0.4,3.3,1.3c0.8,0.9,1.2,2.2,1.2,3.8c0,1.5-0.4,2.7-1.2,3.7c-0.8,1-1.9,1.4-3.4,1.4
		c-0.4,0-0.9-0.1-1.3-0.2C254,120.6,253.7,120.4,253.5,120.3z"/>
	<path class="st0" d="M263.2,120.8v-8.4h-1.4v-1.5h3.1v9.9H263.2z M264.1,107.2c0.3,0,0.6,0.1,0.8,0.3c0.2,0.2,0.3,0.5,0.3,0.8
		c0,0.3-0.1,0.6-0.3,0.8c-0.2,0.2-0.5,0.3-0.8,0.3c-0.3,0-0.5-0.1-0.8-0.3c-0.2-0.2-0.3-0.5-0.3-0.8c0-0.3,0.1-0.6,0.3-0.8
		C263.6,107.3,263.8,107.2,264.1,107.2z"/>
	<path class="st0" d="M273.1,112.6c-0.4-0.3-0.8-0.4-1.2-0.4c-0.6,0-1.2,0.3-1.6,0.9c-0.5,0.6-0.7,1.3-0.7,2.1v5.7h-1.8v-9.9h1.8
		v1.6c0.6-1.2,1.6-1.8,2.9-1.8c0.3,0,0.8,0.1,1.4,0.2L273.1,112.6z"/>
	<path class="st0" d="M275.9,120.8v-8.4h-1.4v-1.5h3.1v9.9H275.9z M276.8,107.2c0.3,0,0.6,0.1,0.8,0.3c0.2,0.2,0.3,0.5,0.3,0.8
		c0,0.3-0.1,0.6-0.3,0.8c-0.2,0.2-0.5,0.3-0.8,0.3c-0.3,0-0.5-0.1-0.8-0.3c-0.2-0.2-0.3-0.5-0.3-0.8c0-0.3,0.1-0.6,0.3-0.8
		C276.3,107.3,276.5,107.2,276.8,107.2z"/>
	<path class="st0" d="M281,112.3h-1.2v-1.4h1.2v-2.1l1.8-0.7v2.7h2.7v1.4h-2.7v4.9c0,0.8,0.1,1.4,0.4,1.8c0.3,0.4,0.7,0.5,1.4,0.5
		c0.5,0,0.9-0.1,1.4-0.3l0.3,1.5c-0.7,0.2-1.5,0.3-2.4,0.3c-0.8,0-1.4-0.3-2-0.9c-0.5-0.6-0.8-1.3-0.8-2.2V112.3z"/>
	<path class="st0" d="M1.8,58.8h25.5v5.7h-5c-1.2,0-1.9,0.1-2.1,0.4c-0.3,0.2-0.4,1-0.4,2.3v26c0,1.3,0.1,2.1,0.4,2.3
		c0.3,0.2,1,0.4,2,0.4h5.1v5.7H1.8v-5.7h4.9c1.2,0,1.9-0.1,2.2-0.4c0.3-0.2,0.5-1,0.5-2.3v-26v-1c0-0.4,0-0.8,0-1
		c0,0-0.1-0.1-0.4-0.3c-0.3-0.2-1-0.3-2.2-0.3h-5V58.8z"/>
	<path class="st0" d="M28.3,58.8h21.3l11,29.9l10.6-29.9h20.7v5.7h-5.3c-0.7,0-1.2,0.1-1.6,0.4c-0.3,0.3-0.4,0.8-0.4,1.7v27.2
		c0,1,0.1,1.7,0.4,1.9l0.4,0.1h1.3h5.1v5.6H68.6v-5.6h4.5c0.5,0,0.9-0.1,1-0.3c0.1-0.2,0.2-0.8,0.2-1.8v-27l-11.4,34.7h-7.8
		l-12-34.1v26.4v1.6c0,0.1,0.1,0.3,0.2,0.4c0.1,0.1,0.4,0.2,1,0.2h4.8v5.6H28.3v-5.6H33h0.7h1.1c0.3,0,0.5,0,0.6-0.1
		c0.3-0.3,0.5-1,0.5-2V66.5c0-1-0.3-1.6-1-1.8c-0.9-0.2-1.7-0.3-2.4-0.3h-1h-3.1V58.8z"/>
	<path class="st0" d="M93.7,58.8h45.3v17.3h-5.8v-3.4c0-1.6-0.3-2.9-0.8-3.9c-0.5-1.2-1.2-2.1-2-2.7c-0.8-0.6-1.9-1.1-3.1-1.4
		c-1-0.2-2.7-0.3-5.1-0.3h-10.5v12.1h4.9c0.5,0,0.9,0,1.3,0c0.4,0,0.8-0.1,1.2-0.2c0.4-0.1,0.9-0.5,1.4-1.1c0.5-0.6,0.8-1.8,0.8-3.5
		v-2.2h5.6v20h-5.6v-2.4c0-1.7-0.3-2.9-1-3.6c-0.7-0.7-1.8-1.1-3.3-1.1h-5.1v13.4h10.6c4,0,6.8-0.7,8.4-2.1c1.6-1.4,2.5-3.8,2.5-7.1
		v-3.1h5.8v18H93.7v-5.7h4.9c1.1,0,1.9-0.1,2.2-0.3c0.2-0.1,0.4-0.4,0.4-0.8v-1.6V67.1v-0.8v-1.1c0-0.2-0.1-0.3-0.4-0.5
		c-0.3-0.2-1-0.3-2.1-0.3h-5.1V58.8z"/>
	<path class="st1" d="M160.9,62.8c-1.9,0-3.4,0.7-4.6,2c-1.2,1.3-1.8,2.9-1.8,4.8c0,2.1,0.6,3.9,1.7,5.3c1.1,1.4,2.7,2.1,4.7,2.1
		c1.9,0,3.4-0.7,4.5-2c1.1-1.4,1.6-3.1,1.6-5.3c0-1.9-0.6-3.5-1.8-4.8C164.1,63.5,162.7,62.8,160.9,62.8z M149.5,97.8l2.9-4.3
		c3.2,2.1,6.1,3.1,8.7,3.1c2.4,0,4.4-0.4,5.8-1.3c1.4-0.8,2.1-1.9,2.1-3.1c0-2.5-1.8-3.7-5.3-3.7c-0.6,0-1.7,0.2-3.3,0.5
		c-1.6,0.3-2.8,0.5-3.7,0.5c-4.3,0-6.5-1.6-6.5-4.9c0-1,0.5-1.9,1.5-2.7c1-0.8,2.3-1.4,3.7-1.8c-4.3-2-6.4-5.5-6.4-10.5
		c0-3.2,1.1-5.8,3.3-8c2.2-2.1,5-3.2,8.2-3.2c3,0,5.3,0.6,7,1.8l2.7-3.2l3.5,3.3l-3.2,2.4c1.4,1.8,2.1,4.2,2.1,7.1
		c0,3.1-1,5.7-2.9,7.7c-1.9,2.1-4.4,3.3-7.5,3.6l-4.5,0.5c-0.5,0.1-1.2,0.3-2.1,0.6c-0.9,0.3-1.3,0.8-1.3,1.4c0,0.8,0.9,1.2,2.8,1.2
		c0.8,0,2.1-0.1,3.8-0.4c1.7-0.3,3-0.4,3.8-0.4c3,0,5.3,0.7,7,2.1c1.7,1.4,2.5,3.4,2.5,5.9c0,2.8-1.3,5.1-3.8,6.8
		c-2.5,1.7-5.7,2.6-9.5,2.6c-2,0-4-0.4-6.2-1C152.6,99.7,150.8,98.8,149.5,97.8z"/>
	<path class="st1" d="M194.9,64.2c-1.2-0.8-2.4-1.2-3.6-1.2c-1.9,0-3.6,0.9-5,2.6c-1.4,1.8-2.1,3.9-2.1,6.4v17.5h-5.4V59.1h5.4v4.8
		c2-3.6,4.9-5.4,8.8-5.4c1,0,2.4,0.2,4.2,0.5L194.9,64.2z"/>
	<path class="st1" d="M203.2,74.2c0,7.6,2.7,11.4,8.1,11.4c2.5,0,4.5-1,5.9-3.1s2.1-4.8,2.1-8.4c0-7.5-2.7-11.3-8-11.3
		c-2.5,0-4.4,1-5.9,3C204,67.9,203.2,70.7,203.2,74.2z M197.5,74.2c0-4.7,1.3-8.5,3.8-11.4c2.5-2.9,5.9-4.3,10-4.3
		c4.4,0,7.7,1.4,10.1,4.2c2.4,2.8,3.6,6.6,3.6,11.6c0,4.9-1.2,8.8-3.7,11.6c-2.5,2.8-5.8,4.3-10.1,4.3c-4.3,0-7.7-1.4-10.1-4.3
		C198.7,82.9,197.5,79.1,197.5,74.2z"/>
	<path class="st1" d="M234.5,59.1v19.4c0,4.7,2,7.1,6.1,7.1c1.8,0,3.4-0.5,4.9-1.5c1.5-1,2.5-2.2,2.9-3.6V59.1h5.4v30.4h-5.4v-4.2
		c-0.6,1.2-1.8,2.3-3.7,3.3c-1.8,1-3.6,1.5-5.4,1.5c-3.3,0-5.9-1-7.7-2.9c-1.8-1.9-2.7-4.6-2.7-8.2v-20H234.5z"/>
	<path class="st1" d="M265.2,65.6v17.8c0.3,0.5,1.1,1,2.2,1.5c1.1,0.5,2.2,0.7,3.2,0.7c6.7,0,10.1-3.8,10.1-11.4
		c0-3.9-0.8-6.7-2.4-8.5c-1.6-1.8-4.1-2.7-7.6-2.7c-0.8,0-1.7,0.3-2.8,0.8C266.7,64.4,265.8,65,265.2,65.6z M265.2,87.8v13.6h-5.4
		V59.1h5.4v2.5c2-2.1,4.5-3.1,7.4-3.1c4.3,0,7.7,1.3,10.1,4c2.4,2.7,3.6,6.6,3.6,11.8c0,4.6-1.2,8.4-3.6,11.3
		c-2.4,2.9-5.9,4.4-10.5,4.4c-1.3,0-2.7-0.2-4.1-0.7C266.5,88.9,265.6,88.4,265.2,87.8z"/>
	<rect x="178.8" y="96.2" width="74.9" height="5.2"/>
	<path class="st2" d="M196.7,53.3h16.1c0,0-9.8-32.9-38.6-45.7C147.7-4.1,98.9,0.5,83.6,52.3c0,0,7.8-29.2,40.7-39.2
		c32.9-10,57.5,15.5,57.5,15.5C188.9,35.8,193.8,43.6,196.7,53.3z"/>
	<path d="M172,53.2h12.2c0,0-6.5-22.4-27.3-32.3C132.3,9.2,100.3,15.5,85,48.3c0,0,10.5-22.8,35.3-25.6
		C160.8,18.2,172,53.2,172,53.2z"/>
</g>
</svg>
