<?xml version="1.0" encoding="UTF-8"?><svg xmlns="http://www.w3.org/2000/svg" viewBox="0 0 171.91 96.87"><defs><style>.d,.e{fill:#fff;}.e,.f{fill-rule:evenodd;}.g,.f{fill:#74c044;}.f{opacity:.96;}</style></defs><g id="a"/><g id="b"><g id="c"><g><path class="f" d="M70.86,96.87H37.77c-8.84,0-16.01-7.25-16.01-16.2V16.2C21.76,7.25,28.93,0,37.77,0h118.13c8.84,0,16.01,7.25,16.01,16.2V80.67c0,8.94-7.17,16.2-16.01,16.2H70.86Z"/><path class="d" d="M26.25,38.24h14.27v5.71c4.63-4.72,9.35-6.6,15.55-6.6,9.84,0,15.45,6.1,15.45,17.62v28.84h-14.37v-26.87c0-6.3-1.87-9.35-6.4-9.35s-7.77,2.95-10.23,7.18v29.04h-14.27V38.24Z"/><g><path class="g" d="M8.51,19.52c4.8,0,8.51,3.71,8.51,8.51s-3.71,8.51-8.51,8.51S0,32.72,0,28.03s3.71-8.51,8.51-8.51"/><rect class="g" x="0" y="38.08" width="16.73" height="46.1"/></g><path class="e" d="M117.07,30.36c1.02,0,2.02,.26,2.99,.78,.97,.53,1.73,1.27,2.27,2.25,.54,.98,.81,1.99,.81,3.05s-.27,2.05-.8,3.02c-.53,.97-1.28,1.72-2.25,2.25-.96,.53-1.97,.8-3.02,.8s-2.06-.27-3.02-.8c-.97-.53-1.72-1.28-2.25-2.25-.54-.97-.81-1.98-.81-3.02s.27-2.07,.82-3.05c.54-.97,1.3-1.72,2.28-2.25,.97-.52,1.97-.78,2.99-.78m4.39,3.54c-.45-.81-1.09-1.44-1.9-1.88-.81-.44-1.64-.66-2.49-.66s-1.68,.22-2.49,.66c-.81,.44-1.44,1.06-1.9,1.88-.46,.81-.69,1.66-.69,2.54s.23,1.72,.67,2.52c.45,.8,1.07,1.43,1.88,1.88,.81,.45,1.65,.67,2.52,.67s1.72-.22,2.52-.67c.81-.45,1.43-1.08,1.88-1.88,.45-.8,.67-1.64,.67-2.52s-.23-1.73-.68-2.54m-2.42,4.11c.22,.95,.38,1.61,.52,1.87h-.91c-.11-.19-.26-.78-.45-1.62-.2-.94-.57-1.29-1.37-1.32h-.83v2.95h-.88v-6.7c.44-.09,1.09-.15,1.68-.15,.94,0,1.55,.18,1.98,.57,.33,.29,.53,.76,.53,1.29,0,.89-.57,1.48-1.28,1.73v.03c.51,.18,.83,.67,1,1.37m-.6-3.04c0-.88-.63-1.26-1.56-1.26-.43,0-.72,.04-.87,.08v2.47h.9c.94,0,1.53-.51,1.53-1.29"/><path class="d" d="M117.89,91.05c0,2.16-.41,4.05-1.22,5.81h-16.62c3.04-.88,4.66-2.5,4.66-4.8,0-3.24-3.78-5.34-10.54-5.34-7.23,0-10.94,1.96-10.94,5.2,0,2.43,1.49,4.05,4.39,4.93h-16.75c-.54-1.28-.81-2.63-.81-4.12,0-5.34,4.12-9.26,12.09-11.35-3.51-1.08-5.34-2.9-5.34-5.61,0-3.51,2.57-5.81,7.7-6.96-8.04-2.36-11.48-6.22-12.09-13.71-.13-1.15-.13-3.99,.88-6.69,4.05-11.15,24.79-16.96,24.79-16.96l-1.49-2.63,10,3.04-1.62,9.05-2.09-2.3c-9.86,3.31-14.86,8.31-16.42,12.23-1.42,3.78-.54,11.55,6.82,11.69,7.36,.13,10.27-5.81,8.11-10.74-2.23-5-8.92-4.66-8.92-4.66l9.46-6.49c2.26,.69,4.17,1.6,5.73,2.53,4.38,2.63,7.56,7.13,7.58,12.24v.09c0,8.31-4.93,13.11-14.59,14.8-6.28,1.08-10.27,.07-10.27,3.65,0,3.04,3.99,2.63,12.57,3.72,9.8,1.28,14.93,6.01,14.93,13.38Z"/></g></g></g></svg>